<?xml version="1.0" encoding="UTF-8" standalone="no"?>
<svg
   version="1.1"
   width="3162.1621621621625"
   height="1022.3444896294139"
   viewBox="0 0 3162.1621621621625 1022.3444896294139"
   id="svg11"
   sodipodi:docname="Color logo - no background.svg"
   inkscape:version="1.3 (0e150ed, 2023-07-21)"
   inkscape:export-filename="../png/Color logo - no background.png"
   inkscape:export-xdpi="96"
   inkscape:export-ydpi="96"
   xmlns:inkscape="http://www.inkscape.org/namespaces/inkscape"
   xmlns:sodipodi="http://sodipodi.sourceforge.net/DTD/sodipodi-0.dtd"
   xmlns="http://www.w3.org/2000/svg"
   xmlns:svg="http://www.w3.org/2000/svg">
  <defs
     id="defs11" />
  <sodipodi:namedview
     id="namedview11"
     pagecolor="#ffffff"
     bordercolor="#000000"
     borderopacity="0.25"
     inkscape:showpageshadow="2"
     inkscape:pageopacity="0.0"
     inkscape:pagecheckerboard="0"
     inkscape:deskcolor="#d1d1d1"
     inkscape:zoom="0.17363492"
     inkscape:cx="1549.2275"
     inkscape:cy="529.84734"
     inkscape:window-width="1344"
     inkscape:window-height="655"
     inkscape:window-x="68"
     inkscape:window-y="37"
     inkscape:window-maximized="0"
     inkscape:current-layer="g11" />
  <g
     transform="scale(8.108108108108109) translate(10, 10)"
     id="g11">
    <defs
       id="SvgjsDefs1149" />
    <g
       id="SvgjsG1150"
       featureKey="symbolFeature-0"
       transform="matrix(1.3299253,0,0,1.253592,-16.483094,-9.9565699)"
       fill="#84b6fd"
       style="fill:#00ff00;fill-opacity:1"
       inkscape:export-filename="../Favicons/iPhone.png"
       inkscape:export-xdpi="21.333334"
       inkscape:export-ydpi="21.333334">
      <g
         id="g10"
         style="fill:#00ff00;fill-opacity:1">
        <g
           id="g1"
           style="fill:#00ff00;fill-opacity:1">
          <polygon
             points="54.644,56.782 35.043,56.782 29.789,76.381 49.394,76.381 "
             id="polygon1"
             style="fill:#00ff00;fill-opacity:1" />
        </g>
        <g
           id="g2"
           style="fill:#00ff00;fill-opacity:1">
          <polygon
             points="29.789,76.381 16.071,76.381 12.394,90.102 26.115,90.102 "
             id="polygon2"
             style="fill:#00ff00;fill-opacity:1" />
        </g>
        <g
           id="g3"
           style="fill:#00ff00;fill-opacity:1">
          <polygon
             points="72.04,43.063 58.319,43.063 54.644,56.782 68.363,56.782 "
             id="polygon3"
             style="fill:#00ff00;fill-opacity:1" />
        </g>
        <g
           id="g4"
           style="fill:#00ff00;fill-opacity:1">
          <polygon
             points="60.892,33.458 51.288,33.458 48.716,43.063 58.319,43.063 "
             id="polygon4"
             style="fill:#00ff00;fill-opacity:1" />
        </g>
        <g
           id="g5"
           style="fill:#00ff00;fill-opacity:1">
          <polygon
             points="78.988,17.134 69.384,17.134 66.81,26.739 76.416,26.739 "
             id="polygon5"
             style="fill:#00ff00;fill-opacity:1" />
        </g>
        <g
           id="g6"
           style="fill:#00ff00;fill-opacity:1">
          <polygon
             points="37.616,47.18 28.013,47.18 25.438,56.782 35.043,56.782 "
             id="polygon6"
             style="fill:#00ff00;fill-opacity:1" />
        </g>
        <g
           id="g7"
           style="fill:#00ff00;fill-opacity:1">
          <polygon
             points="87.511,10.411 80.79,10.411 78.988,17.134 85.71,17.134 "
             id="polygon7"
             style="fill:#00ff00;fill-opacity:1" />
        </g>
        <g
           id="g8"
           style="fill:#00ff00;fill-opacity:1">
          <polygon
             points="80.562,36.341 73.842,36.341 72.04,43.063 78.762,43.063 "
             id="polygon8"
             style="fill:#00ff00;fill-opacity:1" />
        </g>
        <g
           id="g9"
           style="fill:#00ff00;fill-opacity:1">
          <polygon
             points="53.089,26.735 46.37,26.735 44.565,33.458 51.288,33.458 "
             id="polygon9"
             style="fill:#00ff00;fill-opacity:1" />
        </g>
      </g>
    </g>
    <g
       id="g12"
       transform="translate(0,-0.52985735)">
      <g
         id="SvgjsG1151"
         featureKey="nameFeature-0"
         transform="matrix(1.5514296,0,0,1.5514296,114.33294,-3.6655525)"
         fill="#e2f2fd"
         style="fill:#000000;fill-opacity:0.748848">
        <path
           d="M 20.352,40 11.5825,28.008 H 9.5122 V 40 H 3.6528 V 11.777 h 5.8594 v 11.094 h 1.9922 l 8.8477,-11.094 h 7.1484 L 16.5625,25.273 27.8325,40 Z m 12.64112,0 V 11.777 h 5.8594 V 40 Z m 19.965846,-5.1758 h 8.8477 V 40 h -14.707 V 11.777 h 5.8594 v 23.047 z m 26.781901,5.56643 c -8.3008,0 -14.434,-5.6445 -14.434,-14.512 0,-8.8675 6.1328,-14.492 14.434,-14.492 6.2891,0 11.328,3.2227 13.34,8.5742 l -5.4688,1.9922 c -1.25,-3.2813 -4.2383,-5.1758 -7.8711,-5.1758 -4.8633,0 -8.5938,3.3984 -8.5938,9.1016 0,5.7032 3.7305,9.1211 8.5938,9.1211 3.6328,0 6.6211,-1.9141 7.8711,-5.1953 l 5.4688,1.9922 c -2.0117,5.3516 -7.0508,8.5938 -13.34,8.5938 z M 116.64031,11.777 h 5.8594 V 40 h -5.8594 V 28.398 h -11.934 V 40 H 98.846913 V 11.777 h 5.859397 V 23.3 h 11.934 z M 130.76656,40 V 11.777 h 5.8594 V 40 Z m 23.48114,0.39063 c -6.0547,0 -10.781,-2.9102 -11.641,-8.2031 l 6.0547,-1.3867 c 0.39063,3.1641 2.7148,4.8047 5.8203,4.8047 2.3828,0 4.2773,-1.0547 4.2578,-3.4375 -0.0195,-2.6563 -3.1445,-3.4961 -6.582,-4.5508 -4.1406,-1.2891 -8.5742,-2.8125 -8.5742,-8.0078 0,-5.2539 4.2969,-8.2227 9.9609,-8.2227 4.9609,0 9.9609,2.0117 11.094,7.4219 l -5.6641,1.4063 c -0.52734,-2.8125 -2.4219,-4.043 -5.0781,-4.043 -2.3633,0 -4.375,0.97656 -4.375,3.3008 0,2.168 2.7734,2.8906 5.9766,3.8477 4.2578,1.2891 9.2969,2.9297 9.2969,8.5547 0,5.9961 -5.0195,8.5156 -10.547,8.5156 z"
           id="path10"
           style="fill:#000000;fill-opacity:0.748848" />
      </g>
      <g
         id="SvgjsG1152"
         featureKey="sloganFeature-0"
         transform="matrix(1.5762927,0,0,1.5762927,144.93698,61.339278)"
         fill="#f5f5f5"
         style="fill:#000000;fill-opacity:0.550691">
        <path
           d="m 4.1,20.18 c -0.65334,0 -1.2335,-0.08674 -1.7401,-0.26008 -0.5066,-0.173342 -0.93332,-0.45 -1.28,-0.83 -0.34668,-0.38 -0.60332,-0.87666 -0.76998,-1.49 -0.16666,-0.61334 -0.23666,-1.3533 -0.21,-2.22 h 1.2 c 0,0.42666 0.02,0.87 0.06,1.33 0.04,0.46 0.14666,0.88 0.32,1.26 0.17334,0.38 0.43668,0.69 0.79002,0.93 0.35334,0.24 0.84334,0.36 1.47,0.36 0.53334,0 0.98668,-0.08 1.36,-0.24 0.37332,-0.16 0.67668,-0.37334 0.91002,-0.64 0.23334,-0.26666 0.39668,-0.58 0.49002,-0.94 0.09334,-0.36 0.14,-0.73334 0.14,-1.12 0,-0.45334 -0.08334,-0.85 -0.25,-1.19 -0.16666,-0.34 -0.38666,-0.64334 -0.66,-0.91 -0.27334,-0.26666 -0.59334,-0.50332 -0.96,-0.70998 -0.36666,-0.20666 -0.75,-0.39 -1.15,-0.55 -0.64,-0.25334 -1.2,-0.50334 -1.68,-0.75 -0.48,-0.24666 -0.87334,-0.52332 -1.18,-0.82998 -0.30666,-0.30666 -0.53666,-0.66332 -0.69,-1.07 -0.15334,-0.40668 -0.23,-0.90332 -0.23,-1.49 0,-1.3333 0.35,-2.3266 1.05,-2.98 0.7,-0.6534 1.7033,-0.98 3.01,-0.98 1.1333,0 2.03,0.33 2.69,0.99 0.66,0.66 0.99,1.65 0.99,2.97 v 1.1 h -1.12 v -1.2 c 0,-0.41334 -0.05,-0.79668 -0.15,-1.15 -0.1,-0.35332 -0.25666,-0.66334 -0.47,-0.93 -0.21334,-0.26666 -0.48334,-0.47666 -0.81,-0.63 -0.32666,-0.15334 -0.71666,-0.23 -1.17,-0.23 -1.0667,0 -1.83,0.28 -2.29,0.84 -0.46,0.56 -0.67,1.3133 -0.63,2.26 0.01334,0.41334 0.09,0.76668 0.23,1.06 0.14,0.29332 0.32666,0.55 0.56,0.77 0.23334,0.22 0.51334,0.41666 0.84,0.59 0.32666,0.17334 0.69,0.34668 1.09,0.52002 0.46666,0.2 0.93,0.41334 1.39,0.64 0.46,0.22666 0.89,0.50666 1.29,0.84 0.4,0.34666 0.73,0.75 0.99,1.21 0.26,0.46 0.39,1.03 0.39,1.71 0,1.32 -0.33666,2.31 -1.01,2.97 -0.67334,0.66 -1.61,0.99 -2.81,0.99 z M 9.46,20 V 5 h 1.28 v 15 z m 12.48,0 V 7.28 L 18.32,15.94 17.2,15.92 13.66,7.26 V 20 H 12.68 V 5 h 1.04 L 17.78,14.76 21.86,5 h 1.06 v 15 z m 6.28,-5.64 H 26.06 V 20 H 24.9 V 5 h 3.62 c 1.32,0 2.3566,0.40334 3.11,1.21 0.7534,0.80666 1.13,1.9767 1.13,3.51 0,0.68 -0.11,1.3033 -0.33,1.87 -0.22,0.5667 -0.53,1.0567 -0.93,1.47 -0.4,0.4133 -0.87666,0.73334 -1.43,0.96 -0.55334,0.22666 -1.17,0.34 -1.85,0.34 z m -0.1,-8.34 -2.06,1.95e-5 V 13.26002 h 1.86 c 0.68,0 1.2533,-0.09666 1.72,-0.29 0.4667,-0.19334 0.84332,-0.45334 1.13,-0.78 0.28668,-0.32666 0.49332,-0.70666 0.61998,-1.14 0.12666,-0.43334 0.19,-0.89 0.19,-1.3700005 0,-0.49334 -0.04666,-0.96334 -0.14,-1.41 -0.09334,-0.44666 -0.26668,-0.83666 -0.52002,-1.17 -0.25334,-0.33334 -0.60668,-0.59668 -1.06,-0.79002 -0.45332,-0.19334 -1.0333,-0.29 -1.74,-0.29 z M 34.1,20 V 5 h 1.08 v 13.92 h 5.1 V 20 Z m 7.3,0 V 5 h 7.36 v 1.16 h -6.32 v 5.7 h 6.26 v 0.92 h -6.26 v 6.06 H 48.9 V 20 Z m 16.26,0.18 c -0.65334,0 -1.2335,-0.08674 -1.7401,-0.26008 -0.5066,-0.173342 -0.93332,-0.45 -1.28,-0.83 -0.34668,-0.38 -0.60332,-0.87666 -0.76998,-1.49 -0.16666,-0.61334 -0.23666,-1.3533 -0.21,-2.22 h 1.2 c 0,0.42666 0.02,0.87 0.06,1.33 0.04,0.46 0.14666,0.88 0.32,1.26 0.17334,0.38 0.43668,0.69 0.79002,0.93 0.35334,0.24 0.84334,0.36 1.47,0.36 0.53334,0 0.98668,-0.08 1.36,-0.24 0.37332,-0.16 0.67668,-0.37334 0.91002,-0.64 0.23334,-0.26666 0.39668,-0.58 0.49002,-0.94 0.09334,-0.36 0.14,-0.73334 0.14,-1.12 0,-0.45334 -0.08334,-0.85 -0.25,-1.19 -0.16666,-0.34 -0.38666,-0.64334 -0.66,-0.91 -0.27334,-0.26666 -0.59334,-0.50332 -0.96,-0.70998 -0.36666,-0.20666 -0.75,-0.39 -1.15,-0.55 -0.64,-0.25334 -1.2,-0.50334 -1.68,-0.75 -0.48,-0.24666 -0.87334,-0.52332 -1.18,-0.82998 -0.30666,-0.30666 -0.53666,-0.66332 -0.69,-1.07 -0.15334,-0.40668 -0.23,-0.90332 -0.23,-1.49 0,-1.3333 0.35,-2.3266 1.05,-2.98 0.7,-0.6534 1.7033,-0.98 3.01,-0.98 1.1333,0 2.03,0.33 2.69,0.99 0.66,0.66 0.99,1.65 0.99,2.97 v 1.1 h -1.12 v -1.2 c 0,-0.41334 -0.05,-0.79668 -0.15,-1.15 -0.1,-0.35332 -0.25666,-0.66334 -0.47,-0.93 -0.21334,-0.26666 -0.48334,-0.47666 -0.81,-0.63 -0.32666,-0.15334 -0.71666,-0.23 -1.17,-0.23 -1.0667,0 -1.83,0.28 -2.29,0.84 -0.46,0.56 -0.67,1.3133 -0.63,2.26 0.01334,0.41334 0.09,0.76668 0.23,1.06 0.14,0.29332 0.32666,0.55 0.56,0.77 0.23334,0.22 0.51334,0.41666 0.84,0.59 0.32666,0.17334 0.69,0.34668 1.09,0.52002 0.46666,0.2 0.93,0.41334 1.39,0.64 0.46,0.22666 0.89,0.50666 1.29,0.84 0.4,0.34666 0.73,0.75 0.99,1.21 0.26,0.46 0.39,1.03 0.39,1.71 0,1.32 -0.33666,2.31 -1.01,2.97 -0.67334,0.66 -1.61,0.99 -2.81,0.99 z m 8.84,0 c -2.52,0 -3.78,-1.32 -3.78,-3.96 v -7.4 c 0,-1.3333 0.31666,-2.3266 0.95,-2.98 0.63334,-0.6534 1.6567,-0.98 3.07,-0.98 1.2933,0 2.25,0.33 2.87,0.99 0.62,0.66 0.93,1.6367 0.93,2.93 v 7.44 c 0,0.66666 -0.07,1.2467 -0.21,1.74 -0.14,0.4933 -0.37,0.90668 -0.69,1.24 -0.32,0.33332 -0.73666,0.58 -1.25,0.74 -0.51334,0.16 -1.1433,0.24 -1.89,0.24 z M 69.48,8.76 C 69.48,8.42666 69.43336,8.08662 69.34002,7.74 69.24668,7.39338 69.09334,7.07668 68.88,6.79002 c -0.21334,-0.28666 -0.49668,-0.52 -0.85002,-0.7 -0.35334,-0.18 -0.79,-0.27 -1.31,-0.27 -0.57334,0 -1.05,0.08 -1.43,0.24 -0.38,0.16 -0.68,0.38334 -0.9,0.67 -0.22,0.28666 -0.37666,0.62332 -0.47,1.01 -0.09334,0.38668 -0.14,0.80666 -0.14,1.26 v 7.1 c 0,0.34666 0.04,0.7 0.12,1.06 0.08,0.36 0.22334,0.69 0.43,0.99 0.20666,0.3 0.48666,0.54666 0.84,0.74 0.35334,0.19334 0.79668,0.29 1.33,0.29 0.57334,0 1.05,-0.07666 1.43,-0.23 0.38,-0.15334 0.68334,-0.36334 0.91,-0.63 0.22666,-0.26666 0.39,-0.58332 0.49,-0.94998 0.1,-0.36666 0.15,-0.76332 0.15,-1.19 v -7.42 z M 72.1,20 V 5 h 1.08 v 13.92 h 5.1 V 20 Z m 10.54,0.18 c -1.2267,0 -2.1768,-0.33336 -2.85,-1 -0.6732,-0.66664 -1.01,-1.6533 -1.01,-2.96 V 5 h 1.08 v 11.16 c 0,0.32 0.04334,0.65666 0.13,1.01 0.08666,0.35334 0.23666,0.67334 0.45,0.96 0.21334,0.28666 0.49668,0.52332 0.85002,0.70998 0.35334,0.18666 0.79,0.28 1.31,0.28 0.57334,0 1.0467,-0.08334 1.42,-0.25 0.3733,-0.16666 0.67334,-0.39666 0.9,-0.69 0.22666,-0.29334 0.38666,-0.64 0.48,-1.04 0.09334,-0.4 0.14,-0.82666 0.14,-1.28 v -10.86 h 1.06 v 11.22 c 0,1.3333 -0.32334,2.3266 -0.97,2.98 -0.64666,0.6534 -1.6433,0.98 -2.99,0.98 z M 92.08,6.1 V 20 H 90.92 V 6.1 H 87.66 V 5 h 7.68 V 6.1 Z M 96.64,20 V 5 h 1.28 v 15 z m 7,0.18 c -2.52,0 -3.78,-1.32 -3.78,-3.96 v -7.4 c 0,-1.3333 0.31666,-2.3266 0.95,-2.98 0.63334,-0.6534 1.6567,-0.98 3.07,-0.98 1.2933,0 2.25,0.33 2.87,0.99 0.62,0.66 0.93,1.6367 0.93,2.93 v 7.44 c 0,0.66666 -0.07,1.2467 -0.21,1.74 -0.14,0.4933 -0.37,0.90668 -0.69,1.24 -0.32,0.33332 -0.73666,0.58 -1.25,0.74 -0.51334,0.16 -1.1433,0.24 -1.89,0.24 z m 2.98,-11.42 c 0,-0.33334 -0.0466,-0.67338 -0.13998,-1.02 -0.0933,-0.34662 -0.24668,-0.66332 -0.46002,-0.94998 -0.21334,-0.28666 -0.49668,-0.52 -0.85002,-0.7 -0.35334,-0.18 -0.79,-0.27 -1.31,-0.27 -0.57334,0 -1.05,0.08 -1.43,0.24 -0.38,0.16 -0.68,0.38334 -0.9,0.67 -0.22,0.28666 -0.37666,0.62332 -0.47,1.01 -0.0933,0.38668 -0.14,0.80666 -0.14,1.26 v 7.1 c 0,0.34666 0.04,0.7 0.12,1.06 0.08,0.36 0.22334,0.69 0.43,0.99 0.20666,0.3 0.48666,0.54666 0.84,0.74 0.35334,0.19334 0.79668,0.29 1.33,0.29 0.57334,0 1.05,-0.07666 1.43,-0.23 0.38,-0.15334 0.68334,-0.36334 0.91,-0.63 0.22666,-0.26666 0.39,-0.58332 0.49,-0.94998 0.1,-0.36666 0.15,-0.76332 0.15,-1.19 v -7.42 z M 116.14,20 110.34,7.12 V 20 h -1.1 V 5 h 1.18 l 5.8,12.3 0.14,-12.3 h 1.08 v 15 z m 6.96,0.18 c -0.65334,0 -1.2335,-0.08674 -1.7401,-0.26008 -0.5066,-0.173342 -0.93332,-0.45 -1.28,-0.83 -0.34668,-0.38 -0.60332,-0.87666 -0.76998,-1.49 -0.16666,-0.61334 -0.23666,-1.3533 -0.21,-2.22 h 1.2 c 0,0.42666 0.02,0.87 0.06,1.33 0.04,0.46 0.14666,0.88 0.32,1.26 0.17334,0.38 0.43668,0.69 0.79002,0.93 0.35334,0.24 0.84334,0.36 1.47,0.36 0.53334,0 0.98668,-0.08 1.36,-0.24 0.37332,-0.16 0.67668,-0.37334 0.91002,-0.64 0.23334,-0.26666 0.39668,-0.58 0.49002,-0.94 0.0933,-0.36 0.14,-0.73334 0.14,-1.12 0,-0.45334 -0.0833,-0.85 -0.25,-1.19 -0.16666,-0.34 -0.38666,-0.64334 -0.66,-0.91 -0.27334,-0.26666 -0.59334,-0.50332 -0.96,-0.70998 -0.36666,-0.20666 -0.75,-0.39 -1.15,-0.55 -0.64,-0.25334 -1.2,-0.50334 -1.68,-0.75 -0.48,-0.24666 -0.87334,-0.52332 -1.18,-0.82998 -0.30666,-0.30666 -0.53666,-0.66332 -0.69,-1.07 -0.15334,-0.40668 -0.23,-0.90332 -0.23,-1.49 0,-1.3333 0.35,-2.3266 1.05,-2.98 0.7,-0.6534 1.7033,-0.98 3.01,-0.98 1.1333,0 2.03,0.33 2.69,0.99 0.66,0.66 0.99,1.65 0.99,2.97 v 1.1 h -1.12 v -1.2 c 0,-0.41334 -0.05,-0.79668 -0.15,-1.15 -0.1,-0.35332 -0.25666,-0.66334 -0.47,-0.93 -0.21334,-0.26666 -0.48334,-0.47666 -0.81,-0.63 -0.32666,-0.15334 -0.71666,-0.23 -1.17,-0.23 -1.0667,0 -1.83,0.28 -2.29,0.84 -0.46,0.56 -0.67,1.3133 -0.63,2.26 0.0133,0.41334 0.09,0.76668 0.23,1.06 0.14,0.29332 0.32666,0.55 0.56,0.77 0.23334,0.22 0.51334,0.41666 0.84,0.59 0.32666,0.17334 0.69,0.34668 1.09,0.52002 0.46666,0.2 0.93,0.41334 1.39,0.64 0.46,0.22666 0.89,0.50666 1.29,0.84 0.4,0.34666 0.73,0.75 0.99,1.21 0.26,0.46 0.39,1.03 0.39,1.71 0,1.32 -0.33666,2.31 -1.01,2.97 -0.67334,0.66 -1.61,0.99 -2.81,0.99 z"
           id="path11"
           style="fill:#000000;fill-opacity:0.550691" />
      </g>
    </g>
  </g>
</svg>
